<svg width="123" height="29" viewBox="0 0 123 29" fill="none" xmlns="http://www.w3.org/2000/svg">
<g clip-path="url(#clip0_1470_472)">
<path d="M51.6201 22.1675C50.6836 20.5937 50.2091 18.7736 50.2091 16.7606C50.2091 15.1858 50.5044 13.7315 51.0789 12.4182C50.4342 11.5832 49.6425 10.8996 48.698 10.3709C47.3927 9.64026 45.923 9.27552 44.2902 9.27552C42.8999 9.27552 41.7473 9.60012 40.7419 10.0601C38.8483 10.9272 38.3703 11.9204 38.3703 11.9204L37.9509 14.1183C37.9509 14.1183 37.7458 14.2644 37.7245 14.3359C37.7141 14.1065 37.4281 12.034 38.6093 9.71825C38.9804 8.98992 39.8146 8.1733 40.6684 7.72254C41.5222 7.27178 42.754 6.93687 44.3625 6.71779C45.8495 6.52281 47.0813 6.24983 48.0569 5.89655C49.0324 5.54445 49.8495 4.93541 50.5079 4.07059C51.1663 3.20692 51.5443 1.9831 51.6419 0.400291L47.3628 0C47.2893 0.55972 47.1618 0.986393 46.979 1.27772C46.7964 1.5702 46.4791 1.80188 46.0276 1.97163C45.576 2.14253 44.8992 2.27673 43.9972 2.37308C40.1433 2.78714 37.3694 4.09582 35.6746 6.29801C33.9796 8.50246 33.1328 11.4295 33.1328 15.0803C33.1328 16.6872 33.334 18.184 33.7361 19.5719C34.1382 20.9597 34.6933 22.1274 35.401 23.077C36.3031 24.2951 37.4189 25.2011 38.7483 25.7975C40.0777 26.394 41.5463 26.6922 43.1561 26.6922C45.0096 26.6922 46.6734 26.3149 48.15 25.5602C49.6254 24.8054 50.7778 23.7652 51.6064 22.4382C51.6385 22.3876 51.6649 22.3348 51.6948 22.2833C51.6707 22.2442 51.6442 22.2064 51.6201 22.1662V22.1675ZM46.5402 21.1054C45.6738 21.9082 44.5464 22.3109 43.1561 22.3109C41.7657 22.3109 40.6317 21.9094 39.7537 21.1054C38.8758 20.3025 38.4369 19.2553 38.4369 17.9649C38.4369 16.6746 38.8758 15.6641 39.7537 14.8613C40.6317 14.0584 41.7657 13.6558 43.1561 13.6558C44.5464 13.6558 45.6738 14.0515 46.5402 14.8429C47.4053 15.6343 47.8386 16.6746 47.8386 17.9649C47.8386 19.2553 47.4053 20.3013 46.5402 21.1054Z" fill="#0A0A0A"/>
<path d="M55.7834 25.4145C54.2103 24.5623 52.9785 23.3879 52.0891 21.8911C51.1985 20.3943 50.7539 18.6842 50.7539 16.7607C50.7539 14.8372 51.1985 13.1271 52.0891 11.6303C52.9785 10.1335 54.2103 8.95902 55.7834 8.10683C57.3565 7.25461 59.142 6.8291 61.1426 6.8291C63.1431 6.8291 64.9346 7.25577 66.5202 8.10683C68.1048 8.95902 69.3366 10.1335 70.2144 11.6303C71.0923 13.1271 71.5314 14.8372 71.5314 16.7607C71.5314 18.6842 71.0923 20.3943 70.2144 21.8911C69.3366 23.3879 68.1048 24.5623 66.5202 25.4145C64.9346 26.2668 63.142 26.6922 61.1426 26.6922C59.1431 26.6922 57.3565 26.2668 55.7834 25.4145ZM64.9288 20.6855C65.8917 19.6763 66.3744 18.3664 66.3744 16.7607C66.3744 15.1549 65.8928 13.8462 64.9288 12.8358C63.9646 11.8253 62.7031 11.3206 61.1426 11.3206C59.5822 11.3206 58.3194 11.8264 57.3565 12.8358C56.3923 13.8462 55.912 15.1549 55.912 16.7607C55.912 18.3664 56.3935 19.6763 57.3565 20.6855C58.3194 21.696 59.5822 22.2008 61.1426 22.2008C62.7031 22.2008 63.9646 21.696 64.9288 20.6855Z" fill="#0A0A0A"/>
<path d="M89.5561 26.327H83.3005L77.0129 18.9142V26.327H72.0742V7.19336H77.0129V13.3457L75.6328 15.7761L75.6661 16.1328L83.1547 7.19336H88.8977L80.9587 16.3221L89.555 26.327H89.5561Z" fill="#0A0A0A"/>
<path d="M90.4041 25.4145C88.8678 24.5623 87.6729 23.3822 86.8191 21.8727C85.9653 20.3634 85.5391 18.6588 85.5391 16.7607C85.5391 14.8625 85.9653 13.1581 86.8191 11.6486C87.6729 10.1392 88.8678 8.95902 90.4041 8.10683C91.9405 7.25461 93.6722 6.8291 95.5991 6.8291C97.7685 6.8291 99.6898 7.37734 101.36 8.47269C103.03 9.56806 104.195 11.1268 104.854 13.1466L100.208 13.9139C99.8415 13.111 99.2691 12.4779 98.489 12.0145C97.7089 11.5523 96.8297 11.3206 95.8554 11.3206C94.3432 11.3206 93.1056 11.8322 92.1427 12.8541C91.1787 13.8761 90.6984 15.179 90.6984 16.7607C90.6984 18.3424 91.1798 19.6454 92.1427 20.6684C93.1056 21.6904 94.3432 22.2019 95.8554 22.2019C96.8551 22.2019 97.7443 21.9714 98.5257 21.508C99.3061 21.0457 99.9162 20.4253 100.355 19.6454L105.001 20.4127C104.317 22.4337 103.116 23.9855 101.397 25.0682C99.6783 26.1521 97.7443 26.6935 95.5991 26.6935C93.6722 26.6935 91.9405 26.2679 90.4041 25.4157V25.4145Z" fill="#0A0A0A"/>
<path d="M111.849 26.327H105.887V7.19336H110.569L110.532 20.4109L117.044 7.19336H123.006V26.327H118.323L118.398 14.7943L119.447 11.6551L119.217 11.4991L118.335 13.2379L111.85 26.3283L111.849 26.327Z" fill="#0A0A0A"/>
<path d="M16.4517 3.27796V6.43223L8.41138 8.04029V20.9048L16.4517 22.5747V25.4815L0 28.945V0L16.4517 3.27796Z" fill="#0A0A0A"/>
<path d="M24.4973 24.6768L16.457 22.5741V6.43162L24.4973 4.57617V24.6768Z" fill="#0A0A0A"/>
</g>
<defs>
<clipPath id="clip0_1470_472">
<rect width="123" height="28.9941" fill="white"/>
</clipPath>
</defs>
</svg>
